<?xml version="1.0" standalone="no"?>
<!DOCTYPE svg PUBLIC "-//W3C//DTD SVG 20010904//EN"
 "http://www.w3.org/TR/2001/REC-SVG-20010904/DTD/svg10.dtd">
<svg version="1.0" xmlns="http://www.w3.org/2000/svg"
 width="1024.000000pt" height="1024.000000pt" viewBox="0 0 1024.000000 1024.000000"
 preserveAspectRatio="xMidYMid meet">

<g transform="translate(0.000000,1024.000000) scale(0.100000,-0.100000)"
fill="#000000" stroke="none">
<path d="M0 5120 l0 -5120 5120 0 5120 0 0 5120 0 5120 -5120 0 -5120 0 0
-5120z m7518 2450 c58 -206 100 -406 129 -615 14 -106 17 -305 20 -1731 l4
-1610 -153 -96 c-286 -178 -589 -345 -1029 -568 -470 -237 -789 -332 -1218
-361 -417 -28 -839 53 -1267 241 -346 153 -1005 510 -1340 726 l-82 53 -7 173
c-3 95 -5 808 -2 1583 4 1516 3 1492 57 1795 36 197 114 490 131 490 10 0 63
-37 299 -212 175 -129 180 -133 650 -478 206 -152 380 -279 386 -283 7 -4 43
5 80 19 184 69 497 129 768 146 360 24 748 -26 1105 -141 l92 -29 222 162
c484 354 1023 750 1092 802 17 12 33 19 36 16 3 -4 15 -41 27 -82z m2187
-6827 c23 -59 98 -134 159 -159 25 -11 46 -22 46 -25 0 -4 -21 -14 -47 -24
-60 -23 -133 -96 -158 -157 -11 -27 -23 -48 -26 -48 -4 0 -14 21 -24 47 -23
60 -99 135 -160 158 -25 10 -45 21 -45 25 0 4 21 15 47 25 59 23 124 87 154
154 13 28 27 51 30 51 3 0 14 -21 24 -47z"/>
<path d="M2866 7287 c-27 -130 -49 -265 -66 -407 -21 -181 -25 -689 -22 -2376
l2 -781 98 -60 c96 -61 321 -193 326 -193 1 0 52 -28 112 -61 176 -99 720
-372 839 -422 654 -271 1357 -259 2007 33 306 138 1041 532 1253 672 l50 33 3
1395 c3 1397 -1 1593 -33 1840 -16 124 -53 328 -64 347 -4 7 -39 -13 -96 -56
-80 -61 -226 -168 -740 -544 -82 -61 -198 -146 -257 -189 l-107 -80 -83 31
c-534 198 -1140 225 -1693 75 -71 -20 -173 -52 -225 -71 -59 -22 -99 -32 -107
-27 -7 5 -92 68 -188 139 -97 72 -207 153 -245 180 -102 74 -248 182 -505 371
-126 94 -235 173 -241 177 -7 4 -14 -5 -18 -26z m1264 -1796 c0 -48 0 -49 38
-56 110 -20 189 -85 216 -176 9 -29 16 -54 16 -56 0 -2 -38 -3 -85 -3 -71 0
-85 3 -85 16 0 21 -63 84 -84 84 -14 0 -16 -15 -16 -103 l0 -104 50 -11 c73
-17 155 -58 184 -93 65 -77 60 -206 -11 -288 -39 -47 -124 -91 -179 -94 l-39
-3 -3 -52 -3 -52 -55 0 -54 0 0 49 0 49 -52 12 c-70 14 -131 45 -169 83 -35
34 -69 106 -69 142 0 22 4 24 81 27 79 3 82 2 90 -22 18 -51 49 -81 97 -95
l23 -7 -3 113 -3 113 -55 16 c-107 32 -176 82 -199 143 -27 72 -3 185 50 234
35 31 119 71 167 79 l42 7 0 48 0 49 55 0 55 0 0 -49z m2100 0 l0 -48 41 -7
c59 -9 154 -60 179 -96 20 -28 50 -108 50 -132 0 -4 -36 -8 -80 -8 -78 0 -80
1 -95 29 -16 33 -61 71 -81 71 -11 0 -14 -23 -14 -103 l0 -104 55 -13 c87 -21
156 -60 189 -108 25 -35 31 -55 34 -110 3 -59 0 -74 -25 -122 -35 -66 -105
-113 -195 -132 l-58 -12 0 -48 0 -48 -55 0 -55 0 0 50 c0 46 -2 50 -27 55 -62
13 -108 28 -132 43 -70 43 -113 103 -126 175 l-7 37 84 0 84 0 17 -39 c18 -39
43 -62 85 -75 22 -7 22 -7 22 106 l0 114 -73 21 c-159 47 -225 147 -186 286
20 72 121 148 218 163 l41 7 0 48 0 49 55 0 55 0 0 -49z"/>
<path d="M3949 5271 c-37 -38 -38 -79 -3 -115 15 -14 30 -26 35 -26 4 0 14 -3
23 -6 14 -5 16 6 16 85 0 85 -1 91 -21 91 -11 0 -34 -13 -50 -29z"/>
<path d="M4130 4841 c0 -111 3 -115 56 -82 39 24 59 76 45 114 -10 27 -40 50
-78 62 -23 6 -23 5 -23 -94z"/>
<path d="M6069 5285 c-30 -16 -54 -65 -45 -93 8 -24 45 -58 74 -67 22 -6 22
-5 22 84 0 98 -3 102 -51 76z"/>
<path d="M6230 4840 c0 -100 0 -101 23 -95 39 12 64 33 76 64 22 52 -11 107
-76 126 -23 6 -23 5 -23 -95z"/>
</g>
</svg>
